<svg
    xmlns="http://www.w3.org/2000/svg"
    viewBox="0 0 29 30"
    height="18px"
    width="18px"
    id="vector">
    <defs>
        <clipPath id="clip_path">
            <path d="M 0.001 1 L 28.223 1 L 28.223 29.223 L 0.001 29.223 Z"/>
        </clipPath>
    </defs>
    <g id="group">
        <path
            id="path"
            clip-path="url(#clip_path)"
            d="M 11.238 2.855 C 6.064 2.855 1.855 7.064 1.855 12.237 L 1.855 17.986 C 1.855 23.159 6.064 27.369 11.238 27.369 L 16.985 27.369 C 22.159 27.369 26.369 23.159 26.369 17.986 L 26.369 12.236 C 26.369 7.064 22.159 2.855 16.985 2.855 L 11.238 2.855 Z M 11.238 29.223 C 5.042 29.223 0 24.182 0 17.986 L 0 12.236 C 0 6.042 5.04 1.001 11.237 1.001 L 16.985 1.001 C 23.182 1.001 28.223 6.041 28.223 12.238 L 28.223 17.987 C 28.223 24.182 23.181 29.223 16.985 29.223 L 11.238 29.223 Z"
            fill="#aaa29d"
            fill-rule="evenodd"/>
    </g>
    <path
        id="path_1"
        d="M 16.03 15.992 C 16.94 15.992 17.678 16.732 17.678 17.642 L 17.678 20.379 L 20.388 20.379 L 20.388 13.674 L 14.11 8.776 L 7.834 13.674 L 7.834 20.379 L 10.544 20.379 L 10.544 17.642 C 10.544 16.732 11.282 15.992 12.192 15.992 L 16.03 15.992 Z M 17.474 22.234 C 16.564 22.234 15.824 21.494 15.824 20.584 L 15.824 17.846 L 12.398 17.846 L 12.398 20.584 C 12.398 21.494 11.658 22.234 10.748 22.234 L 7.63 22.234 C 6.72 22.234 5.98 21.494 5.98 20.584 L 5.98 13.575 C 5.98 13.063 6.212 12.589 6.615 12.275 L 13.095 7.215 C 13.389 6.987 13.74 6.866 14.112 6.866 C 14.482 6.866 14.833 6.987 15.127 7.216 L 21.607 12.273 C 22.01 12.589 22.242 13.063 22.242 13.575 L 22.243 20.583 C 22.243 21.024 22.071 21.439 21.759 21.75 C 21.449 22.062 21.034 22.234 20.592 22.234 L 17.474 22.234 Z"
        fill="#aaa29d"
        fill-rule="evenodd"/>
</svg>
