<?xml version="1.0" encoding="UTF-8"?>
<svg xmlns="http://www.w3.org/2000/svg" xmlns:xlink="http://www.w3.org/1999/xlink" width="129.11px" height="80.99px" viewBox="0 0 129.11 80.99" version="1.1">
<defs>
<clipPath id="clip1">
  <path d="M 64 15 L 128 15 L 128 80.988281 L 64 80.988281 Z M 64 15 "/>
</clipPath>
<clipPath id="clip2">
  <path d="M 63 15 L 129.109375 15 L 129.109375 80.988281 L 63 80.988281 Z M 63 15 "/>
</clipPath>
</defs>
<g id="surface1">
<g clip-path="url(#clip1)" clip-rule="nonzero">
<path style=" stroke:none;fill-rule:nonzero;fill:rgb(98.399353%,81.599426%,0%);fill-opacity:1;" d="M 127.785156 47.804688 C 127.785156 65.742188 113.507813 80.285156 95.898438 80.285156 C 78.289063 80.285156 64.011719 65.742188 64.011719 47.804688 C 64.011719 29.863281 78.289063 15.320313 95.898438 15.320313 C 113.507813 15.320313 127.785156 29.863281 127.785156 47.804688 "/>
</g>
<g clip-path="url(#clip2)" clip-rule="nonzero">
<path style=" stroke:none;fill-rule:nonzero;fill:rgb(0%,0%,0%);fill-opacity:1;" d="M 91.066406 72.558594 C 90.832031 72.726563 90.6875 72.972656 90.632813 73.285156 C 90.597656 73.484375 90.613281 73.664063 90.671875 73.828125 C 90.726563 73.988281 90.84375 74.164063 91.015625 74.359375 C 91.109375 74.457031 91.148438 74.558594 91.132813 74.660156 C 91.105469 74.800781 91.042969 74.933594 90.933594 75.058594 C 90.832031 75.183594 90.660156 75.332031 90.417969 75.507813 C 90.34375 75.554688 90.304688 75.605469 90.296875 75.652344 C 90.28125 75.730469 90.316406 75.808594 90.394531 75.886719 C 90.472656 75.964844 90.570313 76.015625 90.683594 76.035156 C 90.855469 76.0625 91.050781 76.003906 91.277344 75.855469 C 91.683594 75.589844 92.019531 75.273438 92.285156 74.910156 C 92.546875 74.546875 92.710938 74.179688 92.777344 73.796875 C 92.835938 73.476563 92.789063 73.183594 92.636719 72.917969 C 92.46875 72.613281 92.214844 72.4375 91.878906 72.375 C 91.808594 72.363281 91.742188 72.359375 91.675781 72.359375 C 91.453125 72.359375 91.25 72.425781 91.066406 72.558594 M 63.199219 48.035156 C 63.199219 66.207031 77.980469 80.988281 96.152344 80.988281 C 114.324219 80.988281 129.105469 66.207031 129.105469 48.035156 C 129.105469 29.863281 114.324219 15.082031 96.152344 15.082031 C 77.980469 15.082031 63.199219 29.863281 63.199219 48.035156 M 95.40625 17.226563 C 95.410156 17.136719 95.398438 17.046875 95.378906 16.957031 C 95.636719 16.949219 95.894531 16.9375 96.152344 16.9375 C 96.691406 16.9375 97.222656 16.949219 97.753906 16.976563 C 97.734375 17.066406 97.722656 17.160156 97.730469 17.253906 L 98.109375 22.9375 C 97.863281 23.058594 97.636719 23.246094 97.449219 23.496094 C 97.125 23.925781 96.949219 24.492188 96.949219 25.09375 C 96.949219 25.691406 97.125 26.261719 97.449219 26.691406 C 97.785156 27.140625 98.242188 27.390625 98.734375 27.390625 C 99.226563 27.390625 99.683594 27.140625 100.023438 26.691406 C 100.34375 26.261719 100.523438 25.691406 100.523438 25.09375 C 100.523438 24.492188 100.34375 23.925781 100.023438 23.496094 C 99.835938 23.246094 99.609375 23.058594 99.363281 22.9375 L 99.742188 17.253906 C 99.742188 17.21875 99.738281 17.183594 99.738281 17.148438 C 103.296875 17.558594 106.675781 18.570313 109.765625 20.082031 L 109.351563 20.691406 C 109.003906 20.796875 108.648438 21.085938 108.277344 21.632813 C 107.851563 22.265625 107.628906 22.769531 107.527344 23.140625 L 106.816406 22.722656 C 106.710938 22.660156 106.570313 22.691406 106.503906 22.796875 L 106.195313 23.25 C 106.121094 23.355469 106.152344 23.503906 106.257813 23.578125 L 106.921875 24.027344 C 106.972656 24.058594 107.035156 24.074219 107.09375 24.0625 L 107.328125 24.023438 C 107.191406 24.738281 107.167969 25.515625 107.246094 26.394531 C 107.292969 26.867188 107.542969 27.292969 107.9375 27.558594 L 110.59375 29.355469 C 110.988281 29.621094 111.476563 29.695313 111.933594 29.558594 C 112.804688 29.296875 113.503906 28.992188 114.105469 28.601563 L 114.152344 28.832031 C 114.167969 28.890625 114.203125 28.941406 114.253906 28.976563 L 114.917969 29.425781 C 115.023438 29.5 115.171875 29.46875 115.246094 29.363281 L 115.550781 28.90625 C 115.621094 28.804688 115.597656 28.664063 115.5 28.585938 L 114.847656 28.085938 C 115.152344 27.851563 115.535156 27.457031 115.964844 26.824219 C 116.335938 26.277344 116.46875 25.839844 116.4375 25.476563 L 116.855469 24.855469 C 123.230469 30.554688 127.253906 38.832031 127.253906 48.035156 C 127.253906 54.882813 125.023438 61.21875 121.257813 66.359375 C 121.1875 66.175781 121.105469 65.988281 120.996094 65.800781 C 120.84375 65.53125 120.695313 65.335938 120.550781 65.207031 C 120.417969 65.089844 120.277344 65.027344 120.128906 65.015625 C 119.984375 65.007813 119.863281 65.050781 119.773438 65.152344 C 119.699219 65.242188 119.660156 65.332031 119.660156 65.429688 C 119.664063 65.527344 119.703125 65.671875 119.785156 65.863281 C 119.929688 66.195313 119.964844 66.492188 119.898438 66.757813 C 119.832031 67.027344 119.636719 67.339844 119.320313 67.707031 C 119.113281 67.941406 118.953125 68.097656 118.835938 68.171875 C 118.71875 68.25 118.617188 68.265625 118.527344 68.21875 C 118.453125 68.1875 118.320313 68.097656 118.125 67.957031 C 117.929688 67.8125 117.773438 67.691406 117.660156 67.59375 C 117.472656 67.429688 117.363281 67.296875 117.328125 67.195313 C 117.296875 67.09375 117.324219 66.992188 117.421875 66.882813 C 117.671875 66.597656 117.949219 66.558594 118.253906 66.761719 C 118.402344 66.859375 118.511719 66.914063 118.582031 66.917969 C 118.652344 66.925781 118.722656 66.886719 118.796875 66.804688 C 118.910156 66.667969 118.933594 66.511719 118.855469 66.332031 C 118.714844 65.996094 118.453125 65.664063 118.070313 65.328125 C 117.875 65.15625 117.671875 65.011719 117.464844 64.890625 C 117.253906 64.769531 117.09375 64.703125 116.976563 64.691406 C 116.820313 64.679688 116.699219 64.722656 116.613281 64.824219 C 116.550781 64.890625 116.523438 64.96875 116.519531 65.058594 C 116.519531 65.140625 116.535156 65.214844 116.570313 65.277344 C 116.605469 65.34375 116.6875 65.445313 116.8125 65.585938 C 116.914063 65.695313 116.964844 65.789063 116.964844 65.871094 C 116.96875 65.957031 116.925781 66.046875 116.835938 66.148438 C 116.65625 66.355469 116.523438 66.46875 116.445313 66.484375 C 116.371094 66.503906 116.257813 66.449219 116.113281 66.320313 C 115.742188 66 115.515625 65.792969 115.433594 65.710938 C 115.347656 65.625 115.292969 65.542969 115.265625 65.464844 C 115.21875 65.316406 115.316406 65.105469 115.5625 64.824219 C 115.890625 64.453125 116.152344 64.207031 116.351563 64.089844 C 116.546875 63.972656 116.777344 63.933594 117.03125 63.96875 C 117.210938 63.996094 117.339844 63.996094 117.410156 63.980469 C 117.480469 63.964844 117.554688 63.917969 117.621094 63.835938 C 117.726563 63.71875 117.761719 63.589844 117.726563 63.441406 C 117.695313 63.296875 117.597656 63.15625 117.441406 63.015625 C 117.128906 62.742188 116.789063 62.589844 116.429688 62.554688 C 116.210938 62.535156 116.042969 62.585938 115.933594 62.710938 C 115.90625 62.742188 115.878906 62.789063 115.851563 62.851563 C 115.753906 63.058594 115.636719 63.257813 115.503906 63.445313 C 115.367188 63.628906 115.132813 63.914063 114.800781 64.292969 L 113.164063 66.164063 C 112.925781 66.4375 112.777344 66.628906 112.714844 66.746094 C 112.667969 66.835938 112.65625 66.929688 112.675781 67.03125 C 112.695313 67.132813 112.746094 67.214844 112.820313 67.28125 C 112.964844 67.40625 113.117188 67.417969 113.28125 67.316406 C 113.390625 67.25 113.464844 67.207031 113.507813 67.195313 C 113.554688 67.183594 113.613281 67.183594 113.683594 67.203125 C 114.027344 67.300781 114.671875 67.761719 115.609375 68.578125 C 116.230469 69.125 116.6875 69.59375 116.984375 69.996094 C 117.058594 70.09375 117.101563 70.179688 117.117188 70.257813 C 117.132813 70.332031 117.125 70.421875 117.09375 70.519531 C 117.050781 70.667969 117.03125 70.769531 117.035156 70.828125 C 117.042969 70.875 117.074219 70.925781 117.128906 70.976563 C 116.738281 71.332031 116.339844 71.679688 115.933594 72.015625 C 115.910156 71.839844 115.878906 71.65625 115.828125 71.46875 C 115.746094 71.171875 115.652344 70.945313 115.542969 70.785156 C 115.441406 70.636719 115.324219 70.542969 115.183594 70.496094 C 115.046875 70.445313 114.917969 70.460938 114.804688 70.539063 C 114.710938 70.605469 114.652344 70.683594 114.628906 70.777344 C 114.605469 70.871094 114.609375 71.023438 114.636719 71.226563 C 114.695313 71.582031 114.65625 71.878906 114.523438 72.121094 C 114.390625 72.363281 114.125 72.621094 113.722656 72.890625 C 113.464844 73.070313 113.269531 73.179688 113.140625 73.222656 C 113.007813 73.269531 112.90625 73.257813 112.828125 73.191406 C 112.765625 73.140625 112.65625 73.023438 112.507813 72.835938 C 112.351563 72.648438 112.234375 72.496094 112.148438 72.367188 C 112.007813 72.164063 111.933594 72.007813 111.925781 71.902344 C 111.917969 71.796875 111.976563 71.703125 112.09375 71.621094 C 112.40625 71.40625 112.6875 71.4375 112.929688 71.710938 C 113.050781 71.847656 113.140625 71.921875 113.210938 71.949219 C 113.273438 71.972656 113.351563 71.949219 113.445313 71.886719 C 113.589844 71.789063 113.648438 71.640625 113.621094 71.445313 C 113.570313 71.085938 113.398438 70.699219 113.113281 70.277344 C 112.964844 70.0625 112.808594 69.871094 112.636719 69.703125 C 112.464844 69.53125 112.320313 69.429688 112.214844 69.390625 C 112.066406 69.339844 111.9375 69.351563 111.828125 69.425781 C 111.753906 69.476563 111.703125 69.542969 111.679688 69.628906 C 111.65625 69.710938 111.652344 69.785156 111.671875 69.855469 C 111.691406 69.925781 111.746094 70.046875 111.832031 70.210938 C 111.902344 70.339844 111.925781 70.445313 111.90625 70.527344 C 111.886719 70.609375 111.824219 70.6875 111.710938 70.765625 C 111.484375 70.917969 111.332031 70.996094 111.25 70.992188 C 111.171875 70.988281 111.078125 70.910156 110.96875 70.75 C 110.691406 70.34375 110.523438 70.089844 110.464844 69.984375 C 110.402344 69.882813 110.367188 69.789063 110.363281 69.707031 C 110.355469 69.554688 110.503906 69.371094 110.8125 69.164063 C 111.222656 68.882813 111.539063 68.710938 111.757813 68.648438 C 111.980469 68.585938 112.210938 68.605469 112.449219 68.703125 C 112.617188 68.769531 112.738281 68.808594 112.808594 68.808594 C 112.882813 68.8125 112.964844 68.78125 113.054688 68.722656 C 113.179688 68.636719 113.246094 68.519531 113.253906 68.367188 C 113.257813 68.214844 113.203125 68.054688 113.082031 67.882813 C 112.847656 67.539063 112.5625 67.304688 112.21875 67.183594 C 112.011719 67.105469 111.839844 67.117188 111.699219 67.210938 C 111.667969 67.230469 111.628906 67.269531 111.585938 67.324219 C 111.441406 67.5 111.277344 67.664063 111.097656 67.808594 C 110.921875 67.957031 110.621094 68.171875 110.207031 68.457031 L 108.152344 69.859375 C 107.855469 70.0625 107.660156 70.210938 107.574219 70.304688 C 107.503906 70.382813 107.46875 70.472656 107.464844 70.574219 C 107.457031 70.675781 107.484375 70.769531 107.542969 70.851563 C 107.648438 71.011719 107.796875 71.058594 107.976563 71 C 108.097656 70.960938 108.183594 70.941406 108.230469 70.941406 C 108.277344 70.941406 108.332031 70.957031 108.394531 70.996094 C 108.707031 71.175781 109.210938 71.78125 109.914063 72.808594 C 110.378906 73.492188 110.703125 74.0625 110.890625 74.527344 C 110.9375 74.640625 110.957031 74.734375 110.953125 74.8125 C 110.949219 74.886719 110.921875 74.972656 110.863281 75.058594 C 110.785156 75.191406 110.742188 75.285156 110.734375 75.34375 C 110.726563 75.382813 110.742188 75.429688 110.765625 75.476563 C 110.148438 75.808594 109.519531 76.113281 108.878906 76.402344 C 108.957031 76.285156 109.027344 76.167969 109.082031 76.035156 C 109.273438 75.5625 109.289063 75.105469 109.132813 74.667969 C 109.003906 74.296875 108.789063 74.027344 108.492188 73.851563 C 108.207031 73.6875 107.917969 73.597656 107.632813 73.585938 C 107.488281 73.582031 107.402344 73.539063 107.375 73.464844 C 107.351563 73.394531 107.375 73.296875 107.449219 73.175781 C 107.558594 73 107.621094 72.800781 107.640625 72.570313 C 107.65625 72.339844 107.628906 72.121094 107.554688 71.910156 C 107.40625 71.488281 107.136719 71.203125 106.75 71.054688 C 106.511719 70.96875 106.257813 70.929688 105.988281 70.953125 C 105.714844 70.976563 105.378906 71.058594 104.972656 71.203125 C 104.804688 71.261719 104.613281 71.332031 104.40625 71.414063 C 103.746094 71.667969 103.296875 71.835938 103.070313 71.917969 C 102.761719 72.027344 102.46875 72.121094 102.199219 72.203125 C 102.035156 72.253906 101.898438 72.292969 101.796875 72.332031 C 101.605469 72.398438 101.46875 72.496094 101.378906 72.621094 C 101.289063 72.75 101.265625 72.882813 101.3125 73.015625 C 101.371094 73.179688 101.515625 73.269531 101.746094 73.28125 C 101.949219 73.296875 102.089844 73.355469 102.179688 73.457031 C 102.269531 73.554688 102.375 73.785156 102.503906 74.140625 C 102.84375 75.109375 103.105469 75.9375 103.28125 76.621094 C 103.394531 77.058594 103.453125 77.351563 103.464844 77.488281 C 103.480469 77.632813 103.453125 77.746094 103.386719 77.839844 C 103.269531 77.996094 103.199219 78.109375 103.179688 78.171875 C 103.164063 78.214844 103.164063 78.269531 103.175781 78.324219 C 101.53125 78.707031 99.84375 78.957031 98.113281 79.066406 C 98.179688 79.023438 98.25 78.988281 98.308594 78.941406 C 98.871094 78.507813 99.152344 77.945313 99.148438 77.257813 C 99.148438 76.480469 98.734375 75.890625 97.914063 75.492188 C 97.726563 75.402344 97.296875 75.257813 96.628906 75.066406 C 96.136719 74.921875 95.890625 74.710938 95.890625 74.429688 C 95.886719 74.289063 95.941406 74.175781 96.046875 74.089844 C 96.160156 74 96.300781 73.957031 96.484375 73.957031 C 96.855469 73.957031 97.238281 74.136719 97.625 74.496094 C 97.898438 74.75 98.078125 74.902344 98.160156 74.957031 C 98.238281 75.007813 98.34375 75.03125 98.472656 75.03125 C 98.628906 75.03125 98.761719 74.96875 98.867188 74.84375 C 98.972656 74.722656 99.03125 74.566406 99.03125 74.386719 C 99.027344 74.078125 98.90625 73.753906 98.664063 73.410156 C 98.425781 73.070313 98.199219 72.898438 97.980469 72.898438 C 97.921875 72.898438 97.867188 72.910156 97.816406 72.929688 C 97.65625 72.988281 97.558594 73.015625 97.527344 73.015625 C 97.488281 73.015625 97.433594 73.007813 97.371094 72.988281 C 96.832031 72.824219 96.398438 72.742188 96.066406 72.742188 C 95.285156 72.746094 94.621094 72.972656 94.082031 73.429688 C 93.839844 73.625 93.652344 73.859375 93.523438 74.128906 C 93.390625 74.398438 93.324219 74.675781 93.324219 74.960938 C 93.328125 75.53125 93.582031 76.042969 94.09375 76.496094 C 94.300781 76.679688 94.527344 76.832031 94.769531 76.953125 C 95.011719 77.074219 95.363281 77.207031 95.828125 77.351563 C 96.085938 77.429688 96.277344 77.515625 96.390625 77.609375 C 96.507813 77.703125 96.566406 77.8125 96.566406 77.941406 C 96.566406 78.082031 96.492188 78.195313 96.34375 78.285156 C 96.195313 78.375 96.003906 78.417969 95.765625 78.417969 C 95.488281 78.417969 95.21875 78.359375 94.960938 78.242188 C 94.699219 78.121094 94.511719 77.972656 94.390625 77.792969 C 94.136719 77.410156 93.976563 77.179688 93.910156 77.109375 C 93.796875 76.984375 93.675781 76.921875 93.554688 76.921875 C 93.433594 76.921875 93.332031 76.976563 93.25 77.078125 C 93.1875 77.160156 93.152344 77.277344 93.152344 77.4375 C 93.15625 77.765625 93.21875 78.101563 93.34375 78.449219 C 93.433594 78.710938 93.539063 78.902344 93.652344 79.027344 C 91.449219 78.847656 89.308594 78.445313 87.261719 77.832031 C 87.300781 77.789063 87.335938 77.738281 87.359375 77.679688 C 87.398438 77.574219 87.402344 77.476563 87.363281 77.390625 C 87.328125 77.308594 87.242188 77.199219 87.105469 77.070313 C 86.976563 76.949219 86.90625 76.820313 86.898438 76.683594 C 86.886719 76.546875 86.929688 76.347656 87.027344 76.085938 L 87.96875 73.546875 C 88.046875 73.332031 88.132813 73.1875 88.214844 73.109375 C 88.296875 73.035156 88.394531 73.019531 88.507813 73.058594 C 88.589844 73.089844 88.648438 73.144531 88.683594 73.222656 C 88.71875 73.304688 88.753906 73.453125 88.785156 73.679688 C 88.820313 73.925781 88.882813 74.117188 88.96875 74.25 C 89.050781 74.382813 89.175781 74.480469 89.335938 74.539063 C 89.503906 74.601563 89.667969 74.609375 89.820313 74.566406 C 90.027344 74.503906 90.175781 74.339844 90.277344 74.078125 C 90.417969 73.695313 90.441406 73.277344 90.34375 72.828125 C 90.25 72.378906 90.078125 72.109375 89.832031 72.019531 C 89.765625 71.996094 89.679688 71.976563 89.578125 71.96875 C 89.34375 71.949219 89.097656 71.898438 88.839844 71.808594 L 86.449219 70.921875 C 86.3125 70.871094 86.191406 70.820313 86.09375 70.769531 C 85.992188 70.71875 85.867188 70.644531 85.71875 70.550781 C 85.644531 70.503906 85.578125 70.46875 85.519531 70.449219 C 85.296875 70.363281 85.011719 70.433594 84.667969 70.660156 C 84.453125 70.796875 84.261719 70.960938 84.09375 71.152344 C 83.925781 71.347656 83.808594 71.539063 83.738281 71.726563 C 83.667969 71.917969 83.660156 72.09375 83.722656 72.253906 C 83.78125 72.414063 83.894531 72.527344 84.054688 72.589844 C 84.203125 72.644531 84.375 72.640625 84.570313 72.578125 C 84.738281 72.527344 84.980469 72.386719 85.296875 72.152344 C 85.472656 72.023438 85.621094 71.980469 85.738281 72.027344 C 85.835938 72.0625 85.882813 72.144531 85.882813 72.273438 C 85.882813 72.40625 85.832031 72.609375 85.730469 72.878906 C 85.589844 73.269531 85.40625 73.71875 85.1875 74.242188 C 84.96875 74.761719 84.804688 75.132813 84.695313 75.359375 C 84.570313 75.617188 84.464844 75.78125 84.386719 75.859375 C 84.308594 75.9375 84.207031 75.972656 84.078125 75.960938 C 83.871094 75.949219 83.75 75.945313 83.71875 75.953125 C 83.582031 75.980469 83.492188 76.058594 83.445313 76.179688 C 83.417969 76.253906 83.414063 76.328125 83.421875 76.398438 C 82.601563 76.027344 81.796875 75.625 81.011719 75.1875 C 81.15625 75.109375 81.296875 75.019531 81.441406 74.917969 C 81.6875 74.734375 81.867188 74.566406 81.976563 74.40625 C 82.078125 74.261719 82.128906 74.117188 82.121094 73.96875 C 82.117188 73.820313 82.058594 73.710938 81.949219 73.628906 C 81.851563 73.566406 81.757813 73.539063 81.660156 73.550781 C 81.5625 73.558594 81.425781 73.617188 81.242188 73.71875 C 80.929688 73.898438 80.636719 73.96875 80.367188 73.929688 C 80.09375 73.890625 79.757813 73.734375 79.363281 73.457031 C 79.105469 73.277344 78.929688 73.132813 78.84375 73.027344 C 78.757813 72.921875 78.726563 72.820313 78.761719 72.726563 C 78.789063 72.648438 78.859375 72.507813 78.980469 72.296875 C 79.101563 72.089844 79.207031 71.921875 79.292969 71.796875 C 79.433594 71.59375 79.550781 71.46875 79.648438 71.425781 C 79.746094 71.378906 79.851563 71.398438 79.972656 71.480469 C 80.28125 71.695313 80.351563 71.96875 80.183594 72.296875 C 80.097656 72.453125 80.058594 72.570313 80.0625 72.636719 C 80.0625 72.707031 80.109375 72.773438 80.199219 72.835938 C 80.34375 72.941406 80.503906 72.941406 80.675781 72.847656 C 80.992188 72.671875 81.296875 72.371094 81.589844 71.953125 C 81.738281 71.742188 81.859375 71.527344 81.957031 71.304688 C 82.050781 71.082031 82.101563 70.914063 82.097656 70.800781 C 82.09375 70.644531 82.039063 70.527344 81.929688 70.449219 C 81.855469 70.402344 81.773438 70.378906 81.683594 70.386719 C 81.601563 70.394531 81.53125 70.414063 81.472656 70.460938 C 81.414063 70.503906 81.320313 70.59375 81.195313 70.734375 C 81.097656 70.84375 81.007813 70.90625 80.925781 70.917969 C 80.84375 70.929688 80.746094 70.894531 80.636719 70.816406 C 80.410156 70.660156 80.285156 70.542969 80.261719 70.46875 C 80.234375 70.394531 80.273438 70.277344 80.386719 70.121094 C 80.667969 69.714844 80.84375 69.46875 80.917969 69.375 C 80.992188 69.28125 81.070313 69.21875 81.144531 69.183594 C 81.285156 69.121094 81.507813 69.195313 81.8125 69.410156 C 82.21875 69.691406 82.492188 69.925781 82.628906 70.109375 C 82.765625 70.292969 82.832031 70.515625 82.824219 70.773438 C 82.820313 70.957031 82.828125 71.082031 82.855469 71.152344 C 82.878906 71.222656 82.933594 71.289063 83.019531 71.347656 C 83.148438 71.4375 83.28125 71.457031 83.421875 71.40625 C 83.566406 71.359375 83.695313 71.25 83.816406 71.078125 C 84.054688 70.734375 84.171875 70.382813 84.164063 70.019531 C 84.160156 69.796875 84.089844 69.640625 83.953125 69.542969 C 83.921875 69.523438 83.871094 69.5 83.804688 69.476563 C 83.589844 69.40625 83.378906 69.3125 83.179688 69.195313 C 82.976563 69.082031 82.671875 68.878906 82.257813 68.59375 L 80.21875 67.171875 C 79.921875 66.964844 79.714844 66.835938 79.59375 66.789063 C 79.496094 66.75 79.398438 66.75 79.300781 66.78125 C 79.207031 66.8125 79.128906 66.871094 79.070313 66.953125 C 78.960938 67.109375 78.964844 67.265625 79.089844 67.414063 C 79.167969 67.511719 79.214844 67.582031 79.234375 67.625 C 79.25 67.671875 79.253906 67.726563 79.242188 67.800781 C 79.179688 68.15625 78.796875 68.84375 78.085938 69.863281 C 77.613281 70.542969 77.191406 71.050781 76.828125 71.390625 C 76.738281 71.472656 76.65625 71.523438 76.582031 71.550781 C 76.507813 71.574219 76.421875 71.574219 76.320313 71.554688 C 76.167969 71.527344 76.0625 71.519531 76.007813 71.53125 C 75.96875 71.539063 75.933594 71.566406 75.898438 71.605469 C 75.554688 71.308594 75.214844 71.003906 74.882813 70.695313 C 75.304688 70.605469 75.648438 70.453125 75.902344 70.230469 C 76.089844 70.070313 76.203125 69.894531 76.246094 69.714844 C 76.289063 69.53125 76.253906 69.375 76.140625 69.246094 C 76.027344 69.121094 75.878906 69.105469 75.6875 69.207031 C 75.375 69.371094 75.089844 69.425781 74.828125 69.371094 C 74.566406 69.316406 74.3125 69.152344 74.070313 68.875 C 73.84375 68.621094 73.761719 68.394531 73.820313 68.199219 C 73.871094 68.039063 74.085938 67.792969 74.464844 67.464844 L 76.132813 66 C 76.464844 65.707031 76.695313 65.527344 76.8125 65.464844 C 76.933594 65.402344 77.054688 65.398438 77.175781 65.453125 C 77.378906 65.554688 77.519531 65.605469 77.59375 65.609375 C 77.664063 65.617188 77.742188 65.585938 77.820313 65.515625 C 78.019531 65.339844 78.019531 65.074219 77.820313 64.71875 C 77.664063 64.445313 77.378906 64.070313 76.96875 63.597656 C 76.597656 63.179688 76.265625 62.882813 75.964844 62.699219 C 75.617188 62.488281 75.355469 62.460938 75.175781 62.613281 C 75.097656 62.683594 75.0625 62.78125 75.070313 62.914063 C 75.078125 62.984375 75.121094 63.128906 75.203125 63.335938 C 75.257813 63.460938 75.261719 63.570313 75.21875 63.664063 C 75.171875 63.757813 75.050781 63.886719 74.859375 64.058594 C 74.660156 64.238281 74.363281 64.511719 73.96875 64.878906 C 73.558594 65.257813 73.246094 65.546875 73.023438 65.742188 C 72.542969 66.164063 72.238281 66.402344 72.109375 66.457031 C 71.957031 66.523438 71.789063 66.515625 71.601563 66.433594 C 71.429688 66.363281 71.3125 66.324219 71.25 66.320313 C 71.195313 66.316406 71.132813 66.339844 71.070313 66.394531 C 67.292969 61.246094 65.054688 54.898438 65.054688 48.035156 C 65.054688 38.46875 69.398438 29.902344 76.214844 24.191406 L 79.046875 28.996094 L 81.246094 27.699219 L 78.3125 22.726563 C 78.292969 22.691406 78.285156 22.652344 78.273438 22.613281 C 78.421875 22.507813 78.574219 22.390625 78.730469 22.289063 C 78.71875 22.347656 78.726563 22.410156 78.761719 22.464844 L 82.976563 29.621094 C 83.050781 29.742188 83.210938 29.785156 83.332031 29.710938 L 87.84375 27.050781 C 87.96875 26.976563 88.007813 26.820313 87.933594 26.695313 L 83.714844 19.542969 C 86.738281 18.214844 90.015625 17.359375 93.449219 17.0625 C 93.441406 17.117188 93.4375 17.171875 93.441406 17.226563 L 93.800781 22.648438 L 93.753906 22.648438 C 93.335938 22.648438 92.996094 22.992188 92.996094 23.410156 L 92.996094 27.132813 C 92.996094 27.273438 93.109375 27.390625 93.253906 27.390625 C 93.394531 27.390625 93.507813 27.273438 93.507813 27.132813 L 93.507813 24.210938 L 94.164063 24.210938 L 94.164063 27.132813 C 94.164063 27.273438 94.28125 27.390625 94.421875 27.390625 C 94.5625 27.390625 94.679688 27.273438 94.679688 27.132813 L 94.679688 24.210938 L 95.335938 24.210938 L 95.335938 27.132813 C 95.335938 27.273438 95.449219 27.390625 95.59375 27.390625 C 95.734375 27.390625 95.847656 27.273438 95.847656 27.132813 L 95.847656 23.410156 C 95.847656 22.992188 95.507813 22.648438 95.089844 22.648438 L 95.042969 22.648438 Z M 81.183594 22.632813 L 80.371094 21.253906 C 80.875 20.957031 81.386719 20.675781 81.910156 20.40625 L 82.695313 21.738281 C 82.945313 22.15625 82.804688 22.695313 82.386719 22.941406 C 82.246094 23.023438 82.09375 23.0625 81.941406 23.0625 C 81.640625 23.0625 81.347656 22.910156 81.183594 22.632813 M 110.707031 21.023438 L 110.9375 20.683594 C 112.6875 21.632813 114.332031 22.742188 115.859375 23.996094 L 115.625 24.34375 Z M 109.4375 22.734375 C 109.0625 22.480469 109.113281 22.164063 109.316406 21.867188 C 109.515625 21.570313 109.90625 21.652344 110.28125 21.90625 C 110.65625 22.160156 110.878906 22.488281 110.675781 22.785156 C 110.589844 22.917969 110.414063 22.972656 110.214844 22.972656 C 109.953125 22.972656 109.652344 22.878906 109.4375 22.734375 M 84.449219 23.3125 L 84.273438 23.015625 C 84.203125 22.890625 84.246094 22.734375 84.367188 22.660156 C 84.488281 22.589844 84.648438 22.628906 84.71875 22.753906 L 84.894531 23.050781 C 84.96875 23.171875 84.925781 23.332031 84.804688 23.402344 C 84.761719 23.425781 84.71875 23.4375 84.671875 23.4375 C 84.585938 23.4375 84.5 23.394531 84.449219 23.3125 M 113.238281 24.722656 L 111.25 23.378906 C 111.1875 23.335938 111.171875 23.253906 111.214844 23.195313 C 111.359375 22.980469 111.652344 22.921875 111.867188 23.066406 L 113.296875 24.03125 C 113.507813 24.175781 113.566406 24.46875 113.421875 24.683594 C 113.394531 24.722656 113.355469 24.746094 113.3125 24.746094 C 113.285156 24.746094 113.261719 24.734375 113.238281 24.722656 M 83.390625 23.9375 L 83.214844 23.640625 C 83.140625 23.519531 83.179688 23.359375 83.304688 23.285156 C 83.429688 23.214844 83.589844 23.253906 83.660156 23.378906 L 83.835938 23.675781 C 83.90625 23.796875 83.867188 23.957031 83.742188 24.027344 C 83.703125 24.054688 83.65625 24.066406 83.613281 24.066406 C 83.523438 24.066406 83.4375 24.019531 83.390625 23.9375 M 85.152344 24.5 L 84.976563 24.203125 C 84.902344 24.078125 84.945313 23.921875 85.066406 23.847656 C 85.191406 23.777344 85.347656 23.816406 85.421875 23.941406 L 85.59375 24.238281 C 85.667969 24.359375 85.628906 24.519531 85.503906 24.59375 C 85.464844 24.613281 85.417969 24.628906 85.375 24.628906 C 85.285156 24.628906 85.199219 24.582031 85.152344 24.5 M 82.371094 24.539063 L 82.195313 24.238281 C 82.125 24.117188 82.164063 23.960938 82.289063 23.886719 C 82.414063 23.8125 82.570313 23.855469 82.640625 23.976563 L 82.816406 24.273438 C 82.890625 24.398438 82.847656 24.558594 82.726563 24.628906 C 82.683594 24.652344 82.640625 24.664063 82.59375 24.664063 C 82.507813 24.664063 82.421875 24.621094 82.371094 24.539063 M 84.089844 25.125 L 83.914063 24.828125 C 83.84375 24.707031 83.882813 24.546875 84.003906 24.476563 C 84.128906 24.402344 84.289063 24.441406 84.359375 24.566406 L 84.535156 24.863281 C 84.609375 24.988281 84.566406 25.144531 84.445313 25.21875 C 84.402344 25.242188 84.359375 25.253906 84.3125 25.253906 C 84.222656 25.253906 84.136719 25.207031 84.089844 25.125 M 78.597656 25.160156 L 78.421875 24.863281 C 78.347656 24.742188 78.390625 24.582031 78.511719 24.511719 C 78.636719 24.4375 78.796875 24.480469 78.867188 24.601563 L 79.042969 24.898438 C 79.113281 25.023438 79.074219 25.179688 78.949219 25.253906 C 78.910156 25.277344 78.863281 25.289063 78.820313 25.289063 C 78.730469 25.289063 78.644531 25.246094 78.597656 25.160156 M 81.308594 25.164063 L 81.136719 24.867188 C 81.0625 24.742188 81.105469 24.582031 81.226563 24.511719 C 81.347656 24.441406 81.507813 24.480469 81.582031 24.605469 L 81.757813 24.902344 C 81.828125 25.023438 81.789063 25.183594 81.664063 25.253906 C 81.625 25.277344 81.578125 25.289063 81.535156 25.289063 C 81.445313 25.289063 81.359375 25.246094 81.308594 25.164063 M 111.085938 28.628906 L 108.425781 26.835938 C 108.25 26.714844 108.136719 26.527344 108.117188 26.3125 C 108.0625 25.699219 108.0625 25.148438 108.117188 24.636719 L 113.246094 28.097656 C 112.804688 28.335938 112.289063 28.542969 111.683594 28.722656 C 111.617188 28.742188 111.546875 28.753906 111.480469 28.753906 C 111.339844 28.753906 111.203125 28.710938 111.085938 28.628906 M 114.511719 26.160156 C 114.132813 25.90625 113.796875 25.328125 114 25.03125 C 114.199219 24.734375 114.589844 24.816406 114.964844 25.070313 C 115.339844 25.324219 115.5625 25.652344 115.359375 25.949219 C 115.230469 26.144531 115.0625 26.285156 114.859375 26.285156 C 114.753906 26.285156 114.640625 26.25 114.511719 26.160156 M 85.851563 25.6875 L 85.675781 25.390625 C 85.605469 25.269531 85.644531 25.109375 85.769531 25.039063 C 85.890625 24.964844 86.050781 25.003906 86.121094 25.128906 L 86.296875 25.425781 C 86.371094 25.550781 86.328125 25.707031 86.207031 25.78125 C 86.164063 25.804688 86.121094 25.816406 86.074219 25.816406 C 85.988281 25.816406 85.902344 25.769531 85.851563 25.6875 M 77.683594 25.699219 L 77.507813 25.402344 C 77.4375 25.28125 77.476563 25.121094 77.597656 25.050781 C 77.722656 24.976563 77.882813 25.019531 77.953125 25.140625 L 78.128906 25.4375 C 78.203125 25.558594 78.160156 25.71875 78.039063 25.792969 C 77.996094 25.816406 77.953125 25.828125 77.90625 25.828125 C 77.816406 25.828125 77.734375 25.78125 77.683594 25.699219 M 83.074219 25.726563 L 82.898438 25.429688 C 82.824219 25.304688 82.867188 25.148438 82.988281 25.074219 C 83.113281 25.003906 83.269531 25.042969 83.34375 25.164063 L 83.519531 25.464844 C 83.589844 25.585938 83.546875 25.746094 83.425781 25.816406 C 83.386719 25.839844 83.339844 25.851563 83.296875 25.851563 C 83.207031 25.851563 83.121094 25.808594 83.074219 25.726563 M 84.792969 26.3125 L 84.617188 26.015625 C 84.542969 25.894531 84.585938 25.734375 84.707031 25.664063 C 84.828125 25.589844 84.988281 25.632813 85.058594 25.753906 L 85.234375 26.050781 C 85.308594 26.175781 85.265625 26.332031 85.144531 26.40625 C 85.105469 26.429688 85.058594 26.441406 85.011719 26.441406 C 84.925781 26.441406 84.839844 26.394531 84.792969 26.3125 M 79.296875 26.351563 L 79.121094 26.054688 C 79.050781 25.929688 79.089844 25.769531 79.214844 25.699219 C 79.339844 25.628906 79.496094 25.667969 79.570313 25.792969 L 79.742188 26.089844 C 79.816406 26.210938 79.773438 26.371094 79.652344 26.441406 C 79.609375 26.464844 79.566406 26.476563 79.519531 26.476563 C 79.429688 26.476563 79.34375 26.433594 79.296875 26.351563 M 82.011719 26.351563 L 81.839844 26.054688 C 81.765625 25.929688 81.804688 25.773438 81.925781 25.699219 C 82.050781 25.628906 82.210938 25.667969 82.28125 25.792969 L 82.457031 26.089844 C 82.53125 26.210938 82.488281 26.371094 82.367188 26.441406 C 82.324219 26.46875 82.28125 26.480469 82.234375 26.480469 C 82.148438 26.480469 82.058594 26.433594 82.011719 26.351563 M 78.386719 26.890625 L 78.210938 26.59375 C 78.136719 26.46875 78.175781 26.3125 78.300781 26.238281 C 78.421875 26.164063 78.582031 26.207031 78.65625 26.328125 L 78.828125 26.625 C 78.902344 26.75 78.863281 26.90625 78.738281 26.980469 C 78.699219 27.003906 78.652344 27.015625 78.609375 27.015625 C 78.519531 27.015625 78.433594 26.972656 78.386719 26.890625 M 80 27.539063 L 79.824219 27.242188 C 79.75 27.121094 79.792969 26.960938 79.914063 26.886719 C 80.039063 26.816406 80.195313 26.855469 80.269531 26.976563 L 80.445313 27.277344 C 80.515625 27.398438 80.476563 27.558594 80.351563 27.628906 C 80.308594 27.652344 80.265625 27.667969 80.222656 27.667969 C 80.132813 27.667969 80.046875 27.621094 80 27.539063 M 79.085938 28.078125 L 78.910156 27.78125 C 78.839844 27.65625 78.878906 27.5 79.003906 27.425781 C 79.125 27.351563 79.285156 27.394531 79.355469 27.519531 L 79.53125 27.8125 C 79.605469 27.9375 79.5625 28.097656 79.441406 28.167969 C 79.398438 28.191406 79.351563 28.203125 79.308594 28.203125 C 79.21875 28.203125 79.132813 28.160156 79.085938 28.078125 M 104.9375 74.09375 C 104.878906 74.046875 104.820313 73.949219 104.769531 73.800781 L 104.433594 72.859375 C 104.382813 72.703125 104.363281 72.589844 104.382813 72.515625 C 104.402344 72.441406 104.46875 72.386719 104.574219 72.347656 C 104.773438 72.277344 104.957031 72.300781 105.121094 72.417969 C 105.285156 72.539063 105.421875 72.738281 105.519531 73.027344 C 105.625 73.320313 105.648438 73.554688 105.589844 73.730469 C 105.535156 73.90625 105.390625 74.035156 105.167969 74.117188 C 105.128906 74.128906 105.09375 74.136719 105.058594 74.136719 C 105.011719 74.136719 104.972656 74.121094 104.9375 74.09375 M 105.886719 76.683594 C 105.78125 76.574219 105.660156 76.320313 105.519531 75.921875 L 105.363281 75.488281 C 105.3125 75.335938 105.300781 75.222656 105.332031 75.144531 C 105.363281 75.070313 105.445313 75.007813 105.578125 74.960938 C 106.097656 74.777344 106.472656 75.023438 106.714844 75.699219 C 106.90625 76.242188 106.769531 76.59375 106.308594 76.757813 C 106.242188 76.777344 106.183594 76.789063 106.128906 76.789063 C 106.035156 76.789063 105.953125 76.753906 105.886719 76.683594 "/>
</g>
<path style=" stroke:none;fill-rule:nonzero;fill:rgb(100%,100%,100%);fill-opacity:1;" d="M 94.667969 38.519531 C 93.941406 38.519531 93.21875 38.710938 92.570313 39.136719 C 91.683594 39.726563 91.035156 40.628906 90.597656 41.601563 C 89.996094 42.945313 89.566406 44.492188 89.84375 45.957031 C 89.894531 46.21875 90.292969 47.917969 90.703125 47.945313 C 90.714844 47.945313 98.527344 48.445313 98.527344 48.445313 C 98.527344 48.445313 100.003906 45.59375 99.574219 42.632813 C 99.246094 40.359375 96.929688 38.519531 94.671875 38.519531 "/>
<path style=" stroke:none;fill-rule:nonzero;fill:rgb(0%,0%,0%);fill-opacity:1;" d="M 92.316406 38.753906 C 91.433594 39.335938 90.695313 40.253906 90.175781 41.410156 C 89.398438 43.144531 89.132813 44.703125 89.386719 46.042969 C 89.550781 46.90625 89.9375 48.359375 90.671875 48.40625 C 90.734375 48.410156 98.496094 48.90625 98.496094 48.90625 L 98.796875 48.925781 L 98.9375 48.65625 C 99 48.535156 100.480469 45.636719 100.035156 42.566406 C 99.789063 40.886719 98.519531 39.300781 96.792969 38.527344 C 96.089844 38.210938 95.367188 38.054688 94.671875 38.054688 C 93.828125 38.054688 93.019531 38.289063 92.316406 38.753906 M 90.839844 47.488281 C 90.664063 47.242188 90.394531 46.375 90.296875 45.871094 C 90.078125 44.722656 90.324219 43.351563 91.023438 41.792969 C 91.46875 40.796875 92.09375 40.011719 92.828125 39.523438 C 93.835938 38.859375 95.140625 38.804688 96.414063 39.375 C 97.855469 40.019531 98.917969 41.328125 99.117188 42.699219 C 99.445313 44.964844 98.578125 47.203125 98.242188 47.960938 C 96.894531 47.875 91.667969 47.542969 90.839844 47.488281 "/>
<path style=" stroke:none;fill-rule:nonzero;fill:rgb(100%,100%,100%);fill-opacity:1;" d="M 81.691406 40.339844 C 81.472656 40.703125 81.289063 41.089844 81.144531 41.488281 C 80.230469 43.96875 80.261719 47.164063 81.554688 49.507813 C 81.925781 50.1875 82.414063 50.816406 82.996094 51.328125 C 83.082031 51.402344 83.578125 51.902344 83.714844 51.859375 C 83.730469 51.855469 93.648438 48.820313 93.648438 48.820313 C 93.648438 48.820313 94.148438 44.589844 92.230469 41.121094 C 91.121094 39.109375 88.691406 37.941406 86.359375 37.941406 C 84.5 37.941406 82.703125 38.683594 81.691406 40.339844 "/>
<path style=" stroke:none;fill-rule:nonzero;fill:rgb(0%,0%,0%);fill-opacity:1;" d="M 81.296875 40.097656 C 81.070313 40.472656 80.867188 40.890625 80.707031 41.328125 C 79.6875 44.097656 79.859375 47.394531 81.148438 49.730469 C 81.5625 50.488281 82.082031 51.140625 82.691406 51.675781 L 82.738281 51.722656 C 83.121094 52.082031 83.40625 52.324219 83.699219 52.324219 C 83.746094 52.324219 83.800781 52.316406 83.851563 52.304688 C 83.902344 52.289063 93.785156 49.261719 93.785156 49.261719 L 94.074219 49.171875 L 94.109375 48.871094 C 94.128906 48.695313 94.605469 44.453125 92.636719 40.898438 C 91.523438 38.875 89.121094 37.535156 86.519531 37.476563 C 86.464844 37.476563 86.40625 37.476563 86.351563 37.476563 C 84.144531 37.476563 82.320313 38.425781 81.296875 40.097656 M 83.375 51.046875 L 83.300781 50.980469 C 82.777344 50.515625 82.324219 49.945313 81.960938 49.285156 C 80.796875 47.175781 80.648438 44.175781 81.578125 41.648438 C 81.71875 41.265625 81.890625 40.90625 82.089844 40.582031 C 82.9375 39.191406 84.484375 38.402344 86.355469 38.402344 C 86.402344 38.402344 86.453125 38.402344 86.5 38.40625 C 88.738281 38.453125 90.882813 39.636719 91.828125 41.347656 C 93.359375 44.121094 93.277344 47.464844 93.214844 48.464844 C 91.695313 48.929688 84.875 51.019531 83.738281 51.367188 C 83.671875 51.316406 83.558594 51.21875 83.375 51.046875 "/>
<path style=" stroke:none;fill-rule:nonzero;fill:rgb(0%,0%,0%);fill-opacity:1;" d="M 76.890625 58.429688 L 80.882813 58.117188 L 80.382813 56.371094 "/>
<path style=" stroke:none;fill-rule:nonzero;fill:rgb(98.399353%,81.599426%,0%);fill-opacity:1;" d="M 84.5 50.335938 C 84.078125 52.503906 83.816406 56.761719 86.757813 60.882813 C 88.128906 61.183594 89.648438 61.296875 91.257813 61.066406 C 86.855469 55.382813 87.722656 50.257813 88.398438 48.117188 C 86.839844 48.699219 85.554688 49.476563 84.5 50.335938 "/>
<path style=" stroke:none;fill-rule:nonzero;fill:rgb(0%,0%,0%);fill-opacity:1;" d="M 79.882813 57.433594 C 79.882813 57.433594 82.664063 59.988281 86.757813 60.886719 C 83.816406 56.761719 84.078125 52.503906 84.496094 50.335938 C 80.753906 53.375 79.882813 57.433594 79.882813 57.433594 "/>
<path style=" stroke:none;fill-rule:nonzero;fill:rgb(98.399353%,81.599426%,0%);fill-opacity:1;" d="M 92.824219 47.140625 C 92.027344 49.46875 90.472656 55.867188 95.796875 59.484375 C 96.699219 58.972656 97.609375 58.328125 98.527344 57.53125 C 94.269531 54.4375 95.058594 49.089844 95.550781 47.066406 C 95.28125 47.058594 95.019531 47.054688 94.757813 47.054688 C 94.085938 47.054688 93.441406 47.082031 92.824219 47.140625 "/>
<path style=" stroke:none;fill-rule:nonzero;fill:rgb(0%,0%,0%);fill-opacity:1;" d="M 98.527344 57.535156 C 99.757813 56.460938 100.996094 55.113281 102.222656 53.425781 L 99.34375 47.460938 C 97.988281 47.234375 96.730469 47.105469 95.550781 47.066406 C 95.058594 49.089844 94.269531 54.4375 98.527344 57.535156 "/>
<path style=" stroke:none;fill-rule:nonzero;fill:rgb(0%,0%,0%);fill-opacity:1;" d="M 88.398438 48.117188 C 87.722656 50.257813 86.855469 55.382813 91.257813 61.066406 C 92.710938 60.859375 94.238281 60.367188 95.796875 59.484375 C 90.472656 55.863281 92.027344 49.46875 92.824219 47.140625 C 91.148438 47.289063 89.679688 47.636719 88.398438 48.117188 "/>
<path style=" stroke:none;fill-rule:nonzero;fill:rgb(0%,0%,0%);fill-opacity:1;" d="M 92.785156 46.679688 C 91.15625 46.824219 89.625 47.164063 88.238281 47.683594 C 86.75 48.238281 85.390625 49.007813 84.207031 49.972656 C 80.378906 53.082031 79.46875 57.164063 79.429688 57.335938 L 79.375 57.59375 L 79.570313 57.773438 C 79.6875 57.878906 82.492188 60.425781 86.660156 61.335938 C 87.621094 61.546875 88.582031 61.652344 89.53125 61.652344 C 90.132813 61.652344 90.730469 61.609375 91.324219 61.527344 C 92.933594 61.296875 94.515625 60.742188 96.027344 59.886719 C 96.976563 59.347656 97.921875 58.671875 98.832031 57.882813 C 100.140625 56.742188 101.40625 55.335938 102.597656 53.699219 L 102.761719 53.476563 L 99.660156 47.046875 L 99.421875 47.003906 C 98.097656 46.78125 96.800781 46.644531 95.566406 46.605469 C 95.300781 46.59375 95.03125 46.589844 94.769531 46.589844 C 94.089844 46.589844 93.425781 46.621094 92.785156 46.679688 M 86.855469 60.429688 C 83.5625 59.710938 81.113281 57.851563 80.40625 57.269531 C 80.671875 56.34375 81.761719 53.15625 84.789063 50.695313 C 85.898438 49.792969 87.167969 49.074219 88.5625 48.550781 C 89.875 48.0625 91.320313 47.742188 92.867188 47.601563 C 93.722656 47.523438 94.621094 47.5 95.535156 47.53125 C 96.652344 47.570313 97.828125 47.6875 99.03125 47.882813 L 101.683594 53.378906 C 100.582031 54.863281 99.417969 56.140625 98.21875 57.183594 C 97.359375 57.933594 96.46875 58.570313 95.570313 59.082031 C 94.160156 59.878906 92.6875 60.394531 91.191406 60.609375 C 90.644531 60.6875 90.089844 60.726563 89.53125 60.726563 C 88.648438 60.726563 87.753906 60.628906 86.855469 60.429688 "/>
<path style=" stroke:none;fill-rule:nonzero;fill:rgb(0%,0%,0%);fill-opacity:1;" d="M 106.484375 32.410156 C 106.253906 32.515625 106.152344 32.789063 106.257813 33.023438 C 106.304688 33.128906 107.40625 35.625 105.378906 39.039063 C 105.246094 39.257813 105.320313 39.542969 105.539063 39.671875 C 105.613281 39.714844 105.695313 39.738281 105.777344 39.738281 C 105.933594 39.738281 106.089844 39.660156 106.175781 39.511719 C 108.464844 35.65625 107.15625 32.753906 107.097656 32.632813 C 107.019531 32.464844 106.851563 32.367188 106.679688 32.367188 C 106.613281 32.367188 106.546875 32.378906 106.484375 32.410156 "/>
<path style=" stroke:none;fill-rule:nonzero;fill:rgb(0%,0%,0%);fill-opacity:1;" d="M 112.082031 44.761719 C 111.914063 44.957031 111.941406 45.25 112.136719 45.414063 C 112.226563 45.488281 112.328125 45.523438 112.4375 45.523438 C 112.566406 45.523438 112.699219 45.464844 112.789063 45.359375 C 112.820313 45.324219 115.710938 41.9375 118.792969 42.414063 C 119.046875 42.453125 119.28125 42.28125 119.320313 42.027344 C 119.359375 41.773438 119.1875 41.539063 118.9375 41.5 C 118.679688 41.460938 118.429688 41.441406 118.183594 41.441406 C 114.914063 41.441406 112.203125 44.617188 112.082031 44.761719 "/>
<path style=" stroke:none;fill-rule:evenodd;fill:rgb(98.399353%,81.599426%,0%);fill-opacity:1;" d="M 107.628906 32.828125 C 107.628906 33.355469 107.203125 33.78125 106.679688 33.78125 C 106.152344 33.78125 105.726563 33.355469 105.726563 32.828125 C 105.726563 32.300781 106.152344 31.875 106.679688 31.875 C 107.203125 31.875 107.628906 32.300781 107.628906 32.828125 "/>
<path style=" stroke:none;fill-rule:nonzero;fill:rgb(0%,0%,0%);fill-opacity:1;" d="M 107.941406 32.828125 C 107.941406 33.179688 107.800781 33.496094 107.570313 33.726563 C 107.339844 33.957031 107.023438 34.097656 106.679688 34.097656 C 106.332031 34.097656 106.015625 33.957031 105.785156 33.726563 C 105.554688 33.496094 105.414063 33.179688 105.414063 32.828125 C 105.414063 32.476563 105.554688 32.160156 105.785156 31.929688 C 106.015625 31.699219 106.332031 31.558594 106.679688 31.558594 C 107.023438 31.558594 107.339844 31.699219 107.570313 31.929688 C 107.800781 32.160156 107.941406 32.476563 107.941406 32.828125 M 107.132813 33.277344 C 107.246094 33.160156 107.316406 33.003906 107.316406 32.828125 C 107.316406 32.652344 107.246094 32.496094 107.132813 32.378906 C 107.015625 32.265625 106.855469 32.195313 106.679688 32.195313 C 106.5 32.195313 106.339844 32.265625 106.222656 32.378906 C 106.109375 32.496094 106.039063 32.652344 106.039063 32.828125 C 106.039063 33.003906 106.109375 33.160156 106.222656 33.277344 C 106.339844 33.390625 106.5 33.460938 106.679688 33.460938 C 106.855469 33.460938 107.015625 33.390625 107.132813 33.277344 "/>
<path style=" stroke:none;fill-rule:evenodd;fill:rgb(98.399353%,81.599426%,0%);fill-opacity:1;" d="M 119.816406 42.023438 C 119.816406 42.546875 119.390625 42.972656 118.863281 42.972656 C 118.335938 42.972656 117.914063 42.546875 117.914063 42.023438 C 117.914063 41.496094 118.335938 41.070313 118.863281 41.070313 C 119.390625 41.070313 119.816406 41.496094 119.816406 42.023438 "/>
<path style=" stroke:none;fill-rule:nonzero;fill:rgb(0%,0%,0%);fill-opacity:1;" d="M 120.128906 42.019531 C 120.128906 42.371094 119.984375 42.691406 119.753906 42.921875 C 119.523438 43.148438 119.210938 43.292969 118.863281 43.292969 C 118.515625 43.292969 118.199219 43.148438 117.972656 42.921875 C 117.742188 42.691406 117.601563 42.371094 117.601563 42.019531 C 117.601563 41.671875 117.742188 41.351563 117.972656 41.121094 C 118.199219 40.894531 118.515625 40.75 118.863281 40.75 C 119.210938 40.75 119.527344 40.894531 119.753906 41.121094 C 119.984375 41.351563 120.128906 41.671875 120.128906 42.019531 M 119.316406 42.46875 C 119.433594 42.355469 119.503906 42.195313 119.503906 42.019531 C 119.503906 41.847656 119.433594 41.6875 119.316406 41.574219 C 119.203125 41.460938 119.042969 41.386719 118.863281 41.386719 C 118.683594 41.386719 118.523438 41.460938 118.40625 41.574219 C 118.296875 41.6875 118.222656 41.847656 118.222656 42.019531 C 118.222656 42.195313 118.296875 42.355469 118.410156 42.46875 C 118.523438 42.585938 118.683594 42.65625 118.863281 42.65625 C 119.039063 42.65625 119.203125 42.585938 119.316406 42.46875 "/>
<path style=" stroke:none;fill-rule:nonzero;fill:rgb(98.399353%,81.599426%,0%);fill-opacity:1;" d="M 96.636719 47.511719 C 96.636719 52.082031 100.339844 55.789063 104.914063 55.789063 C 109.488281 55.789063 113.195313 52.082031 113.195313 47.511719 C 113.195313 42.9375 109.488281 39.230469 104.914063 39.230469 C 100.339844 39.230469 96.636719 42.9375 96.636719 47.511719 "/>
<path style=" stroke:none;fill-rule:nonzero;fill:rgb(0%,0%,0%);fill-opacity:1;" d="M 96.171875 47.511719 C 96.171875 52.332031 100.09375 56.253906 104.914063 56.253906 C 109.734375 56.253906 113.65625 52.332031 113.65625 47.511719 C 113.65625 42.6875 109.734375 38.765625 104.914063 38.765625 C 100.09375 38.765625 96.171875 42.6875 96.171875 47.511719 M 97.097656 47.511719 C 97.097656 43.199219 100.605469 39.695313 104.914063 39.695313 C 109.222656 39.695313 112.730469 43.199219 112.730469 47.511719 C 112.730469 51.820313 109.222656 55.324219 104.914063 55.324219 C 100.605469 55.324219 97.097656 51.820313 97.097656 47.511719 "/>
<path style=" stroke:none;fill-rule:nonzero;fill:rgb(0%,0%,0%);fill-opacity:1;" d="M 99.382813 46.148438 C 99.300781 46.296875 99.359375 46.484375 99.507813 46.566406 C 99.65625 46.648438 99.84375 46.59375 99.925781 46.441406 C 100.339844 45.675781 101.46875 45.085938 102.242188 45.507813 C 103.023438 45.925781 103.148438 47.191406 102.734375 47.957031 C 102.652344 48.109375 102.707031 48.296875 102.859375 48.378906 C 102.902344 48.402344 102.953125 48.414063 103.003906 48.414063 C 103.113281 48.414063 103.222656 48.355469 103.277344 48.253906 C 103.835938 47.21875 103.636719 45.554688 102.539063 44.964844 C 102.269531 44.816406 101.976563 44.753906 101.679688 44.753906 C 100.765625 44.753906 99.804688 45.367188 99.382813 46.148438 "/>
<path style=" stroke:none;fill-rule:nonzero;fill:rgb(0%,0%,0%);fill-opacity:1;" d="M 105.910156 49.046875 C 105.828125 49.195313 105.886719 49.382813 106.035156 49.464844 C 106.183594 49.542969 106.371094 49.488281 106.453125 49.339844 C 106.867188 48.570313 107.996094 47.984375 108.773438 48.402344 C 109.550781 48.824219 109.675781 50.085938 109.261719 50.855469 C 109.179688 51.003906 109.234375 51.195313 109.386719 51.273438 C 109.433594 51.300781 109.480469 51.3125 109.53125 51.3125 C 109.640625 51.3125 109.746094 51.253906 109.804688 51.148438 C 110.363281 50.113281 110.164063 48.449219 109.066406 47.859375 C 108.796875 47.714844 108.503906 47.648438 108.207031 47.648438 C 107.289063 47.648438 106.332031 48.265625 105.910156 49.046875 "/>
<path style=" stroke:none;fill-rule:nonzero;fill:rgb(0%,0%,0%);fill-opacity:1;" d="M 102.269531 49.332031 C 101.863281 50.082031 102.007813 51.246094 102.808594 51.675781 C 103 51.78125 103.214844 51.832031 103.4375 51.832031 C 103.652344 51.832031 103.875 51.785156 104.097656 51.691406 C 104.511719 51.519531 104.863281 51.210938 105.0625 50.839844 C 105.144531 50.691406 105.085938 50.503906 104.9375 50.421875 C 104.789063 50.339844 104.597656 50.394531 104.515625 50.546875 C 104.386719 50.789063 104.140625 51.003906 103.859375 51.121094 C 103.695313 51.191406 103.378906 51.285156 103.101563 51.132813 C 102.644531 50.882813 102.558594 50.097656 102.8125 49.625 C 102.894531 49.476563 102.839844 49.289063 102.6875 49.207031 C 102.644531 49.179688 102.59375 49.167969 102.542969 49.167969 C 102.433594 49.167969 102.328125 49.226563 102.269531 49.332031 "/>
<path style=" stroke:none;fill-rule:nonzero;fill:rgb(91.799927%,65.499878%,67.098999%);fill-opacity:1;" d="M 107.914063 52.164063 C 107.714844 52.507813 108.003906 53.042969 108.554688 53.359375 C 109.105469 53.679688 109.714844 53.660156 109.910156 53.316406 C 110.109375 52.96875 109.824219 52.433594 109.273438 52.113281 C 109.011719 51.964844 108.738281 51.890625 108.5 51.890625 C 108.238281 51.890625 108.019531 51.980469 107.914063 52.164063 "/>
<path style=" stroke:none;fill-rule:nonzero;fill:rgb(91.799927%,65.499878%,67.098999%);fill-opacity:1;" d="M 97.453125 47.140625 C 97.253906 47.484375 97.542969 48.019531 98.089844 48.339844 C 98.640625 48.65625 99.25 48.636719 99.449219 48.292969 C 99.648438 47.949219 99.359375 47.410156 98.8125 47.09375 C 98.550781 46.941406 98.277344 46.867188 98.039063 46.867188 C 97.777344 46.867188 97.558594 46.960938 97.453125 47.140625 "/>
<path style=" stroke:none;fill-rule:nonzero;fill:rgb(0%,0%,0%);fill-opacity:1;" d="M 26.871094 0.511719 C 26.046875 0.773438 25.636719 1.15625 25.636719 1.660156 C 25.636719 1.878906 25.746094 2.074219 25.964844 2.25 C 26.085938 2.34375 26.371094 2.472656 26.820313 2.632813 C 27.09375 2.722656 27.273438 2.867188 27.359375 3.074219 C 27.445313 3.273438 27.488281 3.652344 27.488281 4.203125 C 27.496094 4.785156 27.515625 5.644531 27.546875 6.789063 C 27.582031 7.984375 27.601563 8.898438 27.601563 9.53125 C 27.601563 10.898438 27.554688 11.722656 27.46875 12.003906 C 27.359375 12.339844 27.109375 12.605469 26.71875 12.792969 C 26.367188 12.960938 26.144531 13.09375 26.050781 13.1875 C 25.957031 13.28125 25.910156 13.421875 25.910156 13.617188 C 25.910156 13.933594 26.054688 14.171875 26.332031 14.332031 C 26.523438 14.441406 26.851563 14.496094 27.324219 14.496094 L 34.472656 14.496094 L 36.746094 14.777344 C 36.957031 14.777344 37.136719 14.71875 37.289063 14.605469 C 37.4375 14.492188 37.613281 14.28125 37.8125 13.96875 C 38.4375 12.996094 38.75 12.082031 38.75 11.226563 C 38.75 10.707031 38.636719 10.277344 38.40625 9.949219 C 38.179688 9.621094 37.882813 9.460938 37.523438 9.460938 C 37.160156 9.460938 36.929688 9.683594 36.828125 10.128906 C 36.648438 10.863281 36.335938 11.402344 35.886719 11.746094 C 35.4375 12.089844 34.824219 12.261719 34.042969 12.261719 C 33.324219 12.261719 32.847656 12.082031 32.621094 11.714844 C 32.4375 11.402344 32.347656 10.714844 32.347656 9.644531 L 32.347656 4.898438 C 32.347656 3.945313 32.378906 3.328125 32.449219 3.046875 C 32.515625 2.765625 32.679688 2.5625 32.9375 2.445313 C 33.375 2.261719 33.652344 2.113281 33.761719 2 C 33.878906 1.890625 33.933594 1.722656 33.933594 1.496094 C 33.933594 0.9375 33.511719 0.566406 32.664063 0.375 C 32.007813 0.242188 31.019531 0.171875 29.695313 0.171875 C 28.515625 0.171875 27.578125 0.285156 26.871094 0.511719 M 47.210938 19.472656 C 45.722656 20.101563 44.5 21.054688 43.542969 22.328125 C 42.429688 23.804688 41.871094 25.460938 41.871094 27.3125 C 41.871094 28.683594 42.191406 29.992188 42.835938 31.238281 C 43.328125 32.171875 43.949219 32.96875 44.707031 33.628906 C 46.253906 34.972656 48.175781 35.640625 50.46875 35.640625 C 52.738281 35.640625 54.742188 34.988281 56.480469 33.679688 C 57.464844 32.941406 57.953125 32.175781 57.953125 31.386719 C 57.953125 31.011719 57.816406 30.648438 57.542969 30.296875 C 57.269531 29.945313 56.992188 29.769531 56.707031 29.769531 C 56.488281 29.769531 56.195313 29.902344 55.824219 30.164063 C 55.410156 30.460938 54.882813 30.710938 54.242188 30.914063 C 53.605469 31.117188 53.023438 31.21875 52.5 31.21875 C 51.613281 31.21875 50.789063 30.902344 50.019531 30.273438 C 49.25 29.640625 48.863281 28.964844 48.863281 28.25 C 48.863281 27.953125 49.03125 27.804688 49.371094 27.804688 L 57.070313 27.804688 C 57.539063 27.804688 57.917969 27.574219 58.214844 27.121094 C 58.511719 26.664063 58.65625 26.078125 58.65625 25.363281 C 58.65625 24.484375 58.402344 23.582031 57.886719 22.65625 C 57.441406 21.84375 56.851563 21.140625 56.117188 20.546875 C 54.664063 19.359375 52.90625 18.761719 50.832031 18.761719 C 49.53125 18.761719 48.324219 19 47.210938 19.472656 M 48.96875 24.523438 C 48.8125 24.390625 48.730469 24.160156 48.730469 23.828125 C 48.730469 23.367188 48.894531 22.910156 49.222656 22.460938 C 49.574219 21.976563 50.054688 21.734375 50.664063 21.734375 C 51.210938 21.734375 51.652344 21.921875 51.992188 22.292969 C 52.332031 22.667969 52.5 23.152344 52.5 23.746094 C 52.5 24.398438 52.148438 24.71875 51.449219 24.71875 L 49.796875 24.71875 C 49.402344 24.71875 49.128906 24.652344 48.96875 24.523438 M 29.59375 19.472656 C 28.109375 20.101563 26.886719 21.054688 25.929688 22.328125 C 24.8125 23.804688 24.257813 25.460938 24.257813 27.3125 C 24.257813 28.683594 24.578125 29.992188 25.222656 31.238281 C 25.714844 32.171875 26.335938 32.96875 27.089844 33.628906 C 28.640625 34.972656 30.5625 35.640625 32.851563 35.640625 C 35.125 35.640625 37.128906 34.988281 38.863281 33.679688 C 39.847656 32.941406 40.339844 32.175781 40.339844 31.386719 C 40.339844 31.011719 40.203125 30.648438 39.929688 30.296875 C 39.65625 29.945313 39.378906 29.769531 39.09375 29.769531 C 38.875 29.769531 38.582031 29.902344 38.207031 30.164063 C 37.792969 30.460938 37.269531 30.710938 36.628906 30.914063 C 35.992188 31.117188 35.410156 31.21875 34.882813 31.21875 C 34 31.21875 33.171875 30.902344 32.402344 30.273438 C 31.632813 29.640625 31.25 28.964844 31.25 28.25 C 31.25 27.953125 31.417969 27.804688 31.757813 27.804688 L 39.457031 27.804688 C 39.921875 27.804688 40.304688 27.574219 40.601563 27.121094 C 40.894531 26.664063 41.042969 26.078125 41.042969 25.363281 C 41.042969 24.484375 40.785156 23.582031 40.273438 22.65625 C 39.824219 21.84375 39.234375 21.140625 38.503906 20.546875 C 37.050781 19.359375 35.289063 18.761719 33.214844 18.761719 C 31.914063 18.761719 30.710938 19 29.59375 19.472656 M 31.355469 24.523438 C 31.195313 24.390625 31.117188 24.160156 31.117188 23.828125 C 31.117188 23.367188 31.28125 22.910156 31.609375 22.460938 C 31.960938 21.976563 32.4375 21.734375 33.050781 21.734375 C 33.597656 21.734375 34.039063 21.921875 34.378906 22.292969 C 34.714844 22.667969 34.882813 23.152344 34.882813 23.746094 C 34.882813 24.398438 34.535156 24.71875 33.835938 24.71875 L 32.183594 24.71875 C 31.789063 24.71875 31.515625 24.652344 31.355469 24.523438 M 11.796875 12.722656 C 9.390625 12.789063 7.773438 12.820313 6.949219 12.820313 C 5.832031 12.820313 4.792969 12.796875 3.828125 12.753906 C 3.25 12.722656 2.773438 12.707031 2.398438 12.707031 C 1.71875 12.707031 1.164063 12.859375 0.730469 13.164063 C 0.296875 13.46875 0.0820313 13.863281 0.0820313 14.34375 C 0.0820313 14.933594 0.445313 15.382813 1.167969 15.6875 C 1.792969 15.960938 2.1875 16.308594 2.355469 16.726563 C 2.527344 17.148438 2.613281 17.996094 2.613281 19.277344 C 2.613281 22.757813 2.507813 25.691406 2.300781 28.070313 C 2.15625 29.597656 2.027344 30.597656 1.90625 31.0625 C 1.785156 31.523438 1.566406 31.867188 1.25 32.082031 C 0.699219 32.453125 0.355469 32.730469 0.210938 32.902344 C 0.0703125 33.078125 0 33.320313 0 33.625 C 0 34.09375 0.191406 34.496094 0.574219 34.835938 C 0.96875 35.175781 1.5 35.34375 2.167969 35.34375 C 2.441406 35.34375 2.898438 35.316406 3.53125 35.261719 C 4.246094 35.214844 5.375 35.1875 6.917969 35.164063 L 9.117188 35.144531 C 9.449219 35.15625 10.335938 35.191406 11.78125 35.246094 C 13.371094 35.300781 14.367188 35.328125 14.769531 35.328125 C 17.75 35.328125 20.003906 34.46875 21.527344 32.753906 C 22.675781 31.457031 23.25 30.019531 23.25 28.449219 C 23.25 27.113281 22.871094 26.007813 22.117188 25.121094 C 21.382813 24.269531 20.566406 23.664063 19.667969 23.304688 C 19.207031 23.117188 18.976563 22.886719 18.976563 22.617188 C 18.976563 22.363281 19.167969 22.085938 19.550781 21.78125 C 20.089844 21.355469 20.515625 20.785156 20.835938 20.070313 C 21.152344 19.355469 21.3125 18.621094 21.3125 17.867188 C 21.3125 16.347656 20.773438 15.136719 19.699219 14.230469 C 19.042969 13.671875 18.269531 13.277344 17.375 13.039063 C 16.484375 12.808594 15.308594 12.691406 13.851563 12.691406 C 13.238281 12.691406 12.550781 12.699219 11.796875 12.722656 M 10.457031 21.878906 C 10.320313 21.660156 10.253906 21.28125 10.253906 20.75 L 10.253906 17.371094 C 10.253906 16.816406 10.328125 16.433594 10.472656 16.21875 C 10.621094 16.003906 10.886719 15.898438 11.273438 15.898438 C 11.996094 15.898438 12.550781 16.179688 12.945313 16.742188 C 13.34375 17.304688 13.539063 18.101563 13.539063 19.125 C 13.539063 20.1875 13.347656 20.964844 12.964844 21.460938 C 12.582031 21.957031 11.984375 22.207031 11.171875 22.207031 C 10.835938 22.207031 10.597656 22.097656 10.457031 21.878906 M 10.5625 31.214844 C 10.355469 30.746094 10.253906 29.796875 10.253906 28.367188 L 10.253906 26.808594 C 10.253906 26.265625 10.34375 25.886719 10.53125 25.679688 C 10.71875 25.472656 11.054688 25.367188 11.535156 25.367188 C 13.394531 25.367188 14.328125 26.578125 14.328125 29.003906 C 14.328125 30.949219 13.496094 31.921875 11.832031 31.921875 C 11.195313 31.921875 10.773438 31.6875 10.5625 31.214844 M 72.792969 4.136719 C 72.453125 4.257813 72.222656 4.320313 72.105469 4.320313 C 72 4.320313 71.871094 4.308594 71.710938 4.28125 C 70.925781 4.132813 70.359375 4.054688 70.011719 4.054688 C 68.761719 4.054688 67.773438 4.472656 67.050781 5.308594 C 66.542969 5.894531 66.289063 6.589844 66.289063 7.398438 C 66.289063 8.144531 66.539063 8.804688 67.039063 9.375 C 67.535156 9.945313 68.339844 10.5 69.457031 11.035156 C 69.992188 11.285156 70.261719 11.566406 70.261719 11.871094 C 70.261719 12.066406 70.191406 12.226563 70.054688 12.34375 C 69.914063 12.464844 69.730469 12.523438 69.5 12.523438 C 69.285156 12.523438 69.082031 12.464844 68.894531 12.351563 C 68.707031 12.242188 68.472656 12.035156 68.1875 11.738281 C 67.664063 11.195313 67.324219 10.859375 67.160156 10.734375 C 66.996094 10.609375 66.820313 10.542969 66.625 10.542969 C 66.125 10.542969 65.875 10.859375 65.875 11.484375 C 65.875 11.871094 65.996094 12.332031 66.238281 12.871094 C 66.484375 13.414063 66.746094 13.808594 67.03125 14.0625 C 67.21875 14.226563 67.476563 14.304688 67.800781 14.304688 C 67.890625 14.304688 68.039063 14.292969 68.238281 14.265625 C 68.359375 14.242188 68.460938 14.234375 68.550781 14.234375 C 68.636719 14.234375 69.015625 14.273438 69.6875 14.347656 C 70.402344 14.433594 70.898438 14.480469 71.167969 14.480469 C 72.222656 14.480469 73.117188 14.203125 73.84375 13.652344 C 74.695313 13.023438 75.117188 12.234375 75.117188 11.289063 C 75.117188 10.542969 74.851563 9.910156 74.324219 9.394531 C 73.699219 8.78125 72.800781 8.21875 71.628906 7.703125 C 70.972656 7.410156 70.648438 7.097656 70.648438 6.765625 C 70.648438 6.574219 70.71875 6.410156 70.863281 6.273438 C 71.003906 6.132813 71.171875 6.0625 71.367188 6.0625 C 71.65625 6.0625 72.027344 6.273438 72.472656 6.695313 C 72.894531 7.089844 73.203125 7.34375 73.390625 7.457031 C 73.582031 7.574219 73.800781 7.632813 74.042969 7.632813 C 74.335938 7.632813 74.582031 7.542969 74.773438 7.363281 C 74.96875 7.183594 75.066406 6.957031 75.066406 6.683594 C 75.066406 6.40625 74.980469 6.078125 74.8125 5.695313 C 74.644531 5.316406 74.433594 4.964844 74.167969 4.648438 C 73.84375 4.246094 73.519531 4.046875 73.199219 4.046875 C 73.089844 4.046875 72.953125 4.078125 72.792969 4.136719 M 62.40625 -0.00390625 C 61.765625 0.0117188 61.234375 0.234375 60.816406 0.671875 C 60.386719 1.117188 60.171875 1.679688 60.171875 2.359375 C 60.171875 2.792969 60.265625 3.167969 60.445313 3.484375 C 60.628906 3.804688 60.933594 4.132813 61.363281 4.476563 C 61.597656 4.648438 61.710938 4.847656 61.710938 5.066406 C 61.710938 5.375 61.625 5.683594 61.453125 5.980469 C 61.277344 6.28125 60.96875 6.65625 60.53125 7.113281 C 60.394531 7.242188 60.328125 7.359375 60.328125 7.460938 C 60.328125 7.636719 60.425781 7.789063 60.617188 7.921875 C 60.816406 8.058594 61.035156 8.125 61.28125 8.125 C 61.644531 8.125 62.035156 7.929688 62.453125 7.535156 C 63.203125 6.820313 63.789063 6.03125 64.214844 5.175781 C 64.632813 4.316406 64.84375 3.476563 64.84375 2.648438 C 64.84375 1.953125 64.636719 1.355469 64.226563 0.851563 C 63.773438 0.296875 63.199219 0.0078125 62.496094 -0.00390625 Z M 54.910156 1.660156 C 54.734375 1.660156 54.589844 1.691406 54.472656 1.753906 L 49.71875 4.742188 C 49.570313 4.839844 49.488281 4.992188 49.480469 5.199219 L 49.480469 5.65625 C 49.480469 5.898438 49.511719 6.054688 49.566406 6.117188 C 49.621094 6.183594 49.746094 6.214844 49.949219 6.214844 L 51.019531 6.214844 C 51.179688 6.214844 51.273438 6.234375 51.3125 6.273438 C 51.351563 6.3125 51.371094 6.410156 51.371094 6.570313 L 51.371094 11.363281 C 51.371094 12.386719 51.707031 13.210938 52.375 13.835938 C 53.046875 14.464844 53.9375 14.777344 55.042969 14.777344 C 56.441406 14.777344 57.628906 14.359375 58.613281 13.523438 C 59.082031 13.128906 59.316406 12.714844 59.316406 12.285156 C 59.316406 12.050781 59.25 11.832031 59.109375 11.632813 C 58.972656 11.433594 58.820313 11.332031 58.652344 11.332031 C 58.550781 11.332031 58.445313 11.363281 58.34375 11.425781 C 57.902344 11.671875 57.542969 11.796875 57.273438 11.796875 C 56.957031 11.796875 56.695313 11.667969 56.488281 11.40625 C 56.285156 11.144531 56.183594 10.804688 56.183594 10.390625 L 56.183594 6.878906 C 56.183594 6.6875 56.21875 6.554688 56.289063 6.488281 C 56.359375 6.417969 56.488281 6.382813 56.683594 6.382813 L 58.5625 6.382813 C 58.816406 6.382813 58.992188 6.316406 59.089844 6.191406 C 59.1875 6.0625 59.238281 5.832031 59.238281 5.5 L 59.238281 4.890625 C 59.238281 4.585938 59.195313 4.386719 59.121094 4.289063 C 59.042969 4.199219 58.878906 4.152344 58.621094 4.152344 L 56.703125 4.152344 C 56.488281 4.152344 56.351563 4.121094 56.28125 4.058594 C 56.21875 3.996094 56.183594 3.863281 56.183594 3.652344 L 56.183594 2.253906 C 56.183594 2.019531 56.15625 1.859375 56.097656 1.78125 C 56.039063 1.703125 55.921875 1.660156 55.75 1.660156 Z M 42.367188 4.484375 C 41.445313 4.871094 40.683594 5.460938 40.089844 6.25 C 39.394531 7.160156 39.046875 8.1875 39.046875 9.328125 C 39.046875 10.179688 39.25 10.988281 39.648438 11.753906 C 39.957031 12.332031 40.34375 12.824219 40.808594 13.234375 C 41.773438 14.0625 42.96875 14.480469 44.390625 14.480469 C 45.804688 14.480469 47.046875 14.074219 48.128906 13.265625 C 48.738281 12.808594 49.042969 12.335938 49.042969 11.847656 C 49.042969 11.617188 48.960938 11.390625 48.789063 11.171875 C 48.621094 10.957031 48.449219 10.847656 48.269531 10.847656 C 48.132813 10.847656 47.953125 10.929688 47.722656 11.09375 C 47.464844 11.277344 47.136719 11.433594 46.738281 11.554688 C 46.34375 11.679688 45.980469 11.746094 45.65625 11.746094 C 45.105469 11.746094 44.589844 11.550781 44.113281 11.160156 C 43.632813 10.769531 43.394531 10.351563 43.394531 9.90625 C 43.394531 9.726563 43.5 9.636719 43.710938 9.636719 L 48.496094 9.636719 C 48.785156 9.636719 49.023438 9.492188 49.207031 9.210938 C 49.390625 8.929688 49.480469 8.566406 49.480469 8.125 C 49.480469 7.582031 49.320313 7.023438 49.003906 6.449219 C 48.726563 5.949219 48.355469 5.515625 47.90625 5.148438 C 47 4.410156 45.90625 4.046875 44.617188 4.046875 C 43.808594 4.046875 43.058594 4.191406 42.367188 4.484375 M 43.460938 7.601563 C 43.363281 7.523438 43.3125 7.378906 43.3125 7.175781 C 43.3125 6.890625 43.414063 6.609375 43.621094 6.328125 C 43.835938 6.03125 44.132813 5.878906 44.515625 5.878906 C 44.855469 5.878906 45.128906 5.996094 45.339844 6.226563 C 45.546875 6.457031 45.65625 6.757813 45.65625 7.125 C 45.65625 7.527344 45.4375 7.726563 45.003906 7.726563 L 43.976563 7.726563 C 43.730469 7.726563 43.558594 7.6875 43.460938 7.601563 "/>
</g>
</svg>
