<svg
    xmlns="http://www.w3.org/2000/svg"
    viewBox="0 0 29 30"
    height="18px"
    width="18px"
    id="vector">
    <defs>
        <clipPath id="clip_path">
            <path d="M 0 1 L 28.222 1 L 28.222 29.223 L 0 29.223 Z"/>
        </clipPath>
    </defs>
    <g id="group">
        <path
            id="path"
            clip-path="url(#clip_path)"
            d="M 11.237 2.855 C 6.064 2.855 1.854 7.064 1.854 12.237 L 1.854 17.986 C 1.854 23.159 6.064 27.369 11.237 27.369 L 16.985 27.369 C 22.158 27.369 26.367 23.159 26.367 17.986 L 26.367 12.236 C 26.367 7.064 22.158 2.855 16.985 2.855 L 11.237 2.855 Z M 11.237 29.223 C 5.041 29.223 0 24.182 0 17.986 L 0 12.236 C 0 6.042 5.041 1.001 11.237 1.001 L 16.985 1.001 C 23.181 1.001 28.222 6.041 28.222 12.238 L 28.222 17.987 C 28.222 24.183 23.182 29.224 16.985 29.224 L 11.237 29.224 Z"
            fill="#aaa29d"
            fill-rule="evenodd"/>
    </g>
    <path
        id="path_1"
        d="M 7.986 16.038 C 7.475 16.038 7.059 15.623 7.059 15.111 C 7.059 14.601 7.474 14.184 7.985 14.184 L 20.237 14.184 C 20.749 14.184 21.165 14.601 21.165 15.112 C 21.165 15.622 20.749 16.038 20.237 16.038 L 7.986 16.038 Z M 7.986 10.438 C 7.475 10.438 7.059 10.022 7.059 9.511 C 7.059 8.999 7.474 8.583 7.985 8.583 L 20.237 8.583 C 20.749 8.583 21.165 8.999 21.165 9.511 C 21.165 10.022 20.749 10.438 20.237 10.438 L 7.986 10.438 Z M 7.986 21.64 C 7.475 21.64 7.059 21.223 7.059 20.712 C 7.059 20.202 7.474 19.785 7.985 19.785 L 20.237 19.785 C 20.749 19.785 21.165 20.201 21.165 20.712 C 21.165 21.223 20.749 21.639 20.237 21.639 L 7.986 21.639 Z"
        fill="#aaa29d"
        fill-rule="evenodd"/>
</svg>
