<?xml version="1.0" encoding="UTF-8"?>
<!DOCTYPE svg PUBLIC "-//W3C//DTD SVG 1.1//EN" "http://www.w3.org/Graphics/SVG/1.1/DTD/svg11.dtd">
<!-- Creator: CorelDRAW 2018 (64-Bit) -->
<svg xmlns="http://www.w3.org/2000/svg" xml:space="preserve" width="49px" height="49px" version="1.1" shape-rendering="geometricPrecision" text-rendering="geometricPrecision" image-rendering="optimizeQuality" fill-rule="evenodd" clip-rule="evenodd"
viewBox="0 0 49 49"
 xmlns:xlink="http://www.w3.org/1999/xlink">
 <g id="Layer_x0020_1">
  <metadata id="CorelCorpID_0Corel-Layer"/>
  <g id="_1774676555264">
   <path fill="white" d="M46.07 42.22c1.65,0.23 2.93,1.65 2.93,3.37 0,1.88 -1.53,3.41 -3.41,3.41l-42.18 0c-1.88,0 -3.41,-1.53 -3.41,-3.41 0,-1.72 1.28,-3.14 2.93,-3.37 -1.74,-0.94 -2.93,-2.78 -2.93,-4.9l0 -30.48c0,-3.77 3.07,-6.84 6.84,-6.84l35.32 0c3.77,0 6.84,3.07 6.84,6.84l0 30.48c0,2.12 -1.19,3.96 -2.93,4.9z"/>
   <g>
    <path fill="white" d="M9.58 39.57l-2.74 0c-1.9,0 -3.43,-1.54 -3.43,-3.43l0 -29.3c0,-1.9 1.53,-3.43 3.43,-3.43l35.32 0c1.9,0 3.43,1.53 3.43,3.43l0 29.3c0,1.89 -1.53,3.43 -3.43,3.43l-3.51 0 -29.07 0z"/>
    <path fill="#FF5A5A" d="M42.16 3.41l-35.32 0c-1.9,0 -3.43,1.53 -3.43,3.43l0 2.74 42.18 0 0 -2.74c0,-1.9 -1.53,-3.43 -3.43,-3.43z"/>
    <g>
     <path fill="#231F20" d="M4.35 9.58l40.73 0 -40.73 0zm0 0l0 0 0 0z"/>
    </g>
    <rect fill="#A5DC69" x="7.35" y="36.16" width="5.49" height="9.43"/>
    <rect fill="#78D2FA" x="26.56" y="33.93" width="5.49" height="11.66"/>
    <rect fill="#F5C86E" x="16.96" y="26.68" width="5.49" height="18.91"/>
    <rect fill="#FF5A5A" x="36.16" y="25.4" width="5.49" height="20.19"/>
    <circle fill="#F5C86E" cx="19.22" cy="17.29" r="2.23"/>
    <circle fill="#78D2FA" cx="29.22" cy="27.5" r="2.23"/>
    <circle fill="#FF5A5A" cx="38.9" cy="17.29" r="2.23"/>
    <circle fill="#A5DC69" cx="10.04" cy="26.68" r="2.23"/>
    <path fill="black" d="M43.46 40.32c1.65,0 2.99,-1.34 2.99,-3l0 -30.48c0,-2.37 -1.92,-4.29 -4.29,-4.29l-35.32 0c-2.37,0 -4.29,1.92 -4.29,4.29l0 30.48c0,1.66 1.34,3 3,3l0.94 0 0 4.41 -3.08 0c-0.47,0 -0.86,0.39 -0.86,0.86 0,0.47 0.39,0.86 0.86,0.86l42.18 0c0.47,0 0.86,-0.39 0.86,-0.86 0,-0.47 -0.39,-0.86 -0.86,-0.86l-3.08 0 0 -4.41 0.95 0zm-36.62 -36.05l35.32 0c1.42,0 2.57,1.15 2.57,2.57l0 1.88 -40.38 0c-0.03,0 -0.06,0.01 -0.08,0.01l0 -1.89c0,-1.42 1.15,-2.57 2.57,-2.57zm1.37 40.46l0 -7.71 3.77 0 0 7.71 -3.77 0zm9.6 0l0 -17.19 3.77 0 0 17.19 -3.77 0zm9.61 0l0 -9.94 3.77 0 0 9.94 -3.77 0zm9.6 0l0 -9.23c0,-0.48 -0.39,-0.86 -0.86,-0.86 -0.47,0 -0.86,0.38 -0.86,0.86l0 9.23 -2.4 0 0 -10.8c0,-0.47 -0.38,-0.86 -0.85,-0.86l-5.49 0c-0.48,0 -0.86,0.39 -0.86,0.86l0 10.8 -2.4 0 0 -18.05c0,-0.47 -0.38,-0.86 -0.86,-0.86l-5.49 0c-0.47,0 -0.85,0.39 -0.85,0.86l0 18.05 -2.4 0 0 -8.57c0,-0.47 -0.39,-0.86 -0.86,-0.86l-5.49 0c-0.47,0 -0.86,0.39 -0.86,0.86l0 2.44 -0.94 0c-0.71,0 -1.28,-0.57 -1.28,-1.28l0 -26.88c0.02,0 0.05,0 0.08,0l40.38 0 0 26.88c0,0.71 -0.57,1.28 -1.27,1.28l-0.95 0 0 -13.2c0,-0.47 -0.39,-0.86 -0.86,-0.86l-5.49 0c-0.47,0 -0.86,0.39 -0.86,0.86l0 4.33c0,0.47 0.39,0.86 0.86,0.86 0.47,0 0.86,-0.39 0.86,-0.86l0 -3.47 3.77 0 0 18.47 -3.77 0z"/>
    <path fill="black" d="M21.59 7.35l19.37 0c0.47,0 0.86,-0.38 0.86,-0.86 0,-0.47 -0.39,-0.85 -0.86,-0.85l-19.37 0c-0.47,0 -0.86,0.38 -0.86,0.85 0,0.48 0.39,0.86 0.86,0.86z"/>
    <path fill="black" d="M11.47 7.35c0.22,0 0.45,-0.09 0.6,-0.25 0.16,-0.16 0.26,-0.38 0.26,-0.61 0,-0.22 -0.1,-0.44 -0.26,-0.6 -0.15,-0.16 -0.38,-0.25 -0.6,-0.25 -0.23,0 -0.45,0.09 -0.61,0.25 -0.16,0.16 -0.25,0.38 -0.25,0.6 0,0.23 0.09,0.45 0.25,0.61 0.16,0.16 0.38,0.25 0.61,0.25z"/>
    <path fill="black" d="M8.04 7.35c0.22,0 0.45,-0.09 0.6,-0.25 0.16,-0.16 0.26,-0.38 0.26,-0.61 0,-0.22 -0.1,-0.44 -0.26,-0.6 -0.15,-0.16 -0.38,-0.25 -0.6,-0.25 -0.23,0 -0.45,0.09 -0.61,0.25 -0.16,0.16 -0.25,0.38 -0.25,0.6 0,0.23 0.09,0.45 0.25,0.61 0.16,0.16 0.38,0.25 0.61,0.25z"/>
    <path fill="black" d="M14.9 7.35c0.22,0 0.44,-0.09 0.6,-0.25 0.16,-0.16 0.25,-0.38 0.25,-0.61 0,-0.22 -0.09,-0.44 -0.25,-0.6 -0.16,-0.16 -0.38,-0.25 -0.6,-0.25 -0.23,0 -0.45,0.09 -0.61,0.25 -0.16,0.16 -0.25,0.38 -0.25,0.6 0,0.23 0.09,0.45 0.25,0.61 0.16,0.16 0.38,0.25 0.61,0.25z"/>
    <path fill="black" d="M36.16 31.93c-0.22,0 -0.45,0.09 -0.61,0.25 -0.16,0.16 -0.25,0.38 -0.25,0.61 0,0.22 0.09,0.44 0.25,0.6 0.16,0.16 0.39,0.25 0.61,0.25 0.23,0 0.45,-0.09 0.61,-0.25 0.16,-0.16 0.25,-0.38 0.25,-0.6 0,-0.23 -0.09,-0.45 -0.25,-0.61 -0.16,-0.16 -0.38,-0.25 -0.61,-0.25z"/>
    <path fill="black" d="M38.9 20.38c1.71,0 3.09,-1.39 3.09,-3.09 0,-1.7 -1.38,-3.08 -3.09,-3.08 -1.7,0 -3.08,1.38 -3.08,3.08 0,0.68 0.22,1.3 0.59,1.81l-5.7 5.7c-0.44,-0.25 -0.95,-0.39 -1.49,-0.39 -0.48,0 -0.95,0.12 -1.35,0.32l-5.95 -5.95c0.24,-0.44 0.38,-0.95 0.38,-1.49 0,-1.7 -1.38,-3.08 -3.08,-3.08 -1.71,0 -3.09,1.38 -3.09,3.08 0,0.6 0.17,1.15 0.46,1.63l-5.06 5.06c-0.44,-0.25 -0.95,-0.39 -1.49,-0.39 -1.7,0 -3.09,1.39 -3.09,3.09 0,1.7 1.39,3.09 3.09,3.09 1.7,0 3.09,-1.39 3.09,-3.09 0,-0.54 -0.14,-1.05 -0.39,-1.49l5.13 -5.12c0.4,0.2 0.86,0.31 1.35,0.31 0.54,0 1.04,-0.14 1.49,-0.38l5.88 5.88c-0.29,0.47 -0.45,1.03 -0.45,1.62 0,1.7 1.38,3.09 3.08,3.09 1.7,0 3.09,-1.39 3.09,-3.09 0,-0.54 -0.14,-1.05 -0.39,-1.49l5.85 -5.85c0.35,0.14 0.73,0.22 1.13,0.22zm0 -4.46c0.76,0 1.38,0.62 1.38,1.37 0,0.76 -0.62,1.38 -1.38,1.38 -0.75,0 -1.37,-0.62 -1.37,-1.38 0,-0.75 0.62,-1.37 1.37,-1.37zm-28.86 12.13c-0.76,0 -1.37,-0.61 -1.37,-1.37 0,-0.76 0.61,-1.37 1.37,-1.37 0.76,0 1.37,0.61 1.37,1.37 0,0.76 -0.61,1.37 -1.37,1.37zm9.18 -9.38c-0.76,0 -1.38,-0.62 -1.38,-1.38 0,-0.75 0.62,-1.37 1.38,-1.37 0.75,0 1.37,0.62 1.37,1.37 0,0.76 -0.62,1.38 -1.37,1.38zm10 10.2c-0.75,0 -1.37,-0.61 -1.37,-1.37 0,-0.76 0.62,-1.37 1.37,-1.37 0.76,0 1.37,0.61 1.37,1.37 0,0.76 -0.61,1.37 -1.37,1.37z"/>
    <path fill="black" d="M14.66 15.07c0.23,0 0.45,-0.09 0.61,-0.25 0.16,-0.16 0.25,-0.38 0.25,-0.61 0,-0.22 -0.09,-0.44 -0.25,-0.6 -0.16,-0.16 -0.38,-0.25 -0.61,-0.25 -0.22,0 -0.45,0.09 -0.6,0.25 -0.16,0.16 -0.26,0.38 -0.26,0.6 0,0.23 0.1,0.45 0.26,0.61 0.16,0.16 0.38,0.25 0.6,0.25z"/>
    <path fill="black" d="M7.35 15.07l4.12 0c0.47,0 0.86,-0.38 0.86,-0.86 0,-0.47 -0.39,-0.85 -0.86,-0.85l-4.12 0c-0.47,0 -0.86,0.38 -0.86,0.85 0,0.48 0.39,0.86 0.86,0.86z"/>
    <path fill="black" d="M11.47 19.19c0.47,0 0.86,-0.39 0.86,-0.86 0,-0.47 -0.39,-0.86 -0.86,-0.86l-4.12 0c-0.47,0 -0.86,0.39 -0.86,0.86 0,0.47 0.39,0.86 0.86,0.86l4.12 0z"/>
   </g>
  </g>
 </g>
</svg>
