<svg
    xmlns="http://www.w3.org/2000/svg"
    viewBox="0 0 29 30"
    height="18px"
    width="18px"
    id="vector">
    <defs>
        <clipPath id="clip_path_2">
            <path d="M 0.553 0 L 28.197 0 L 28.197 29.191 L 0.553 29.191 Z"/>
        </clipPath>
    </defs>
    <g id="group_1">
        <path
            id="path_2"
            clip-path="url(#clip_path_2)"
            d="M 10.77 1.919 C 6.506 1.919 2.958 5.123 2.517 9.37 C 2.288 11.575 2.933 13.739 4.334 15.464 C 5.735 17.19 7.72 18.266 9.924 18.494 C 10.211 18.524 10.504 18.54 10.793 18.54 C 12.004 18.54 13.181 18.278 14.289 17.764 C 15.064 17.39 15.809 16.888 16.413 16.34 L 16.753 16.013 C 18.059 14.661 18.853 12.958 19.047 11.087 C 19.52 6.53 16.197 2.436 11.64 1.963 C 11.353 1.934 11.06 1.919 10.77 1.919 Z M 18.578 16.94 C 18.46 17.05 18.318 17.182 18.163 17.323 C 17.662 17.843 17.128 18.294 16.564 18.681 L 16.272 18.88 L 23.254 26.566 C 23.662 27.014 24.216 27.273 24.773 27.273 C 25.05 27.273 25.452 27.207 25.797 26.893 C 26.476 26.277 26.439 25.127 25.715 24.329 L 18.807 16.724 L 18.578 16.94 Z M 24.773 29.191 C 23.677 29.191 22.605 28.705 21.833 27.856 L 14.488 19.772 L 14.295 19.842 C 13.17 20.251 11.993 20.458 10.793 20.458 C 10.438 20.458 10.079 20.44 9.726 20.403 C 4.116 19.821 0.025 14.783 0.609 9.173 C 1.152 3.943 5.52 0 10.77 0 C 11.125 0 11.484 0.019 11.838 0.055 C 17.448 0.638 21.538 5.675 20.956 11.285 C 20.828 12.521 20.482 13.709 19.93 14.816 L 19.837 15.004 L 27.135 23.039 C 28.57 24.619 28.549 26.984 27.088 28.313 C 26.465 28.88 25.642 29.191 24.773 29.191 Z"
            fill="#aaa29d"
            fill-rule="evenodd"/>
    </g>
</svg>
